<mxfile host="Electron" agent="Mozilla/5.0 (Windows NT 10.0; Win64; x64) AppleWebKit/537.36 (KHTML, like Gecko) draw.io/26.2.2 Chrome/134.0.6998.178 Electron/35.1.2 Safari/537.36" version="26.2.2">
  <diagram name="Σελίδα-1" id="8BYGorF-1CgQnMmw-XZW">
    <mxGraphModel dx="1445" dy="1060" grid="0" gridSize="10" guides="1" tooltips="1" connect="1" arrows="1" fold="1" page="0" pageScale="1" pageWidth="827" pageHeight="1169" math="0" shadow="0">
      <root>
        <mxCell id="0" />
        <mxCell id="1" parent="0" />
        <mxCell id="Gz2b2H13pHDKBMSWpAqe-3" style="edgeStyle=none;rounded=0;orthogonalLoop=1;jettySize=auto;html=1;exitX=0.5;exitY=0.5;exitDx=0;exitDy=0;exitPerimeter=0;" parent="1" source="dpwUTuutwJOYTm1G-602-5" target="Gz2b2H13pHDKBMSWpAqe-1" edge="1">
          <mxGeometry relative="1" as="geometry" />
        </mxCell>
        <mxCell id="Gz2b2H13pHDKBMSWpAqe-8" value="Βλέπει" style="edgeLabel;html=1;align=center;verticalAlign=middle;resizable=0;points=[];" parent="Gz2b2H13pHDKBMSWpAqe-3" vertex="1" connectable="0">
          <mxGeometry x="-0.0162" y="2" relative="1" as="geometry">
            <mxPoint as="offset" />
          </mxGeometry>
        </mxCell>
        <mxCell id="Gz2b2H13pHDKBMSWpAqe-15" style="edgeStyle=none;rounded=0;orthogonalLoop=1;jettySize=auto;html=1;exitX=0.5;exitY=0.5;exitDx=0;exitDy=0;exitPerimeter=0;" parent="1" source="dpwUTuutwJOYTm1G-602-5" target="Gz2b2H13pHDKBMSWpAqe-14" edge="1">
          <mxGeometry relative="1" as="geometry" />
        </mxCell>
        <mxCell id="Gz2b2H13pHDKBMSWpAqe-16" value="επιλέγει" style="edgeLabel;html=1;align=center;verticalAlign=middle;resizable=0;points=[];" parent="Gz2b2H13pHDKBMSWpAqe-15" vertex="1" connectable="0">
          <mxGeometry x="-0.1213" relative="1" as="geometry">
            <mxPoint as="offset" />
          </mxGeometry>
        </mxCell>
        <mxCell id="Gz2b2H13pHDKBMSWpAqe-21" style="edgeStyle=none;rounded=0;orthogonalLoop=1;jettySize=auto;html=1;exitX=0.5;exitY=0.5;exitDx=0;exitDy=0;exitPerimeter=0;" parent="1" source="dpwUTuutwJOYTm1G-602-5" target="Gz2b2H13pHDKBMSWpAqe-20" edge="1">
          <mxGeometry relative="1" as="geometry" />
        </mxCell>
        <mxCell id="Gz2b2H13pHDKBMSWpAqe-22" value="Επιλέγει Ένα Request" style="edgeLabel;html=1;align=center;verticalAlign=middle;resizable=0;points=[];" parent="Gz2b2H13pHDKBMSWpAqe-21" vertex="1" connectable="0">
          <mxGeometry x="0.1293" y="-1" relative="1" as="geometry">
            <mxPoint as="offset" />
          </mxGeometry>
        </mxCell>
        <mxCell id="dpwUTuutwJOYTm1G-602-5" value="Admin" style="shape=umlActor;verticalLabelPosition=bottom;verticalAlign=top;html=1;outlineConnect=0;" parent="1" vertex="1">
          <mxGeometry x="-371" y="-129" width="30" height="60" as="geometry" />
        </mxCell>
        <mxCell id="Gz2b2H13pHDKBMSWpAqe-10" value="" style="edgeStyle=none;rounded=0;orthogonalLoop=1;jettySize=auto;html=1;" parent="1" source="dpwUTuutwJOYTm1G-602-13" target="Gz2b2H13pHDKBMSWpAqe-9" edge="1">
          <mxGeometry relative="1" as="geometry" />
        </mxCell>
        <mxCell id="dpwUTuutwJOYTm1G-602-13" value="DataBase" style="ellipse;shape=umlEntity;whiteSpace=wrap;html=1;" parent="1" vertex="1">
          <mxGeometry x="135" y="-308" width="80" height="80" as="geometry" />
        </mxCell>
        <mxCell id="Blse2WxE-sV7xmJfwO1Q-4" value="" style="edgeStyle=none;rounded=0;orthogonalLoop=1;jettySize=auto;html=1;" edge="1" parent="1" source="Gz2b2H13pHDKBMSWpAqe-1" target="Blse2WxE-sV7xmJfwO1Q-3">
          <mxGeometry relative="1" as="geometry" />
        </mxCell>
        <mxCell id="Gz2b2H13pHDKBMSWpAqe-1" value="Admin Menu" style="shape=umlBoundary;whiteSpace=wrap;html=1;" parent="1" vertex="1">
          <mxGeometry x="-244" y="-245" width="100" height="80" as="geometry" />
        </mxCell>
        <mxCell id="Gz2b2H13pHDKBMSWpAqe-23" value="" style="edgeStyle=none;rounded=0;orthogonalLoop=1;jettySize=auto;html=1;" parent="1" source="Gz2b2H13pHDKBMSWpAqe-9" target="Gz2b2H13pHDKBMSWpAqe-20" edge="1">
          <mxGeometry relative="1" as="geometry" />
        </mxCell>
        <mxCell id="Gz2b2H13pHDKBMSWpAqe-26" value="" style="edgeStyle=none;rounded=0;orthogonalLoop=1;jettySize=auto;html=1;" parent="1" source="Gz2b2H13pHDKBMSWpAqe-9" target="Gz2b2H13pHDKBMSWpAqe-18" edge="1">
          <mxGeometry relative="1" as="geometry" />
        </mxCell>
        <mxCell id="Gz2b2H13pHDKBMSWpAqe-9" value="Λήψη&lt;div&gt;Request&lt;/div&gt;" style="ellipse;shape=umlControl;whiteSpace=wrap;html=1;" parent="1" vertex="1">
          <mxGeometry x="-3" y="-260" width="70" height="80" as="geometry" />
        </mxCell>
        <mxCell id="Gz2b2H13pHDKBMSWpAqe-30" value="" style="edgeStyle=none;rounded=0;orthogonalLoop=1;jettySize=auto;html=1;" parent="1" source="Gz2b2H13pHDKBMSWpAqe-14" target="Gz2b2H13pHDKBMSWpAqe-18" edge="1">
          <mxGeometry relative="1" as="geometry" />
        </mxCell>
        <mxCell id="Gz2b2H13pHDKBMSWpAqe-33" value="Αν Υπάρχουν" style="edgeLabel;html=1;align=center;verticalAlign=middle;resizable=0;points=[];" parent="Gz2b2H13pHDKBMSWpAqe-30" vertex="1" connectable="0">
          <mxGeometry x="0.08" y="-2" relative="1" as="geometry">
            <mxPoint as="offset" />
          </mxGeometry>
        </mxCell>
        <mxCell id="Gz2b2H13pHDKBMSWpAqe-36" value="" style="edgeStyle=none;rounded=0;orthogonalLoop=1;jettySize=auto;html=1;" parent="1" source="Gz2b2H13pHDKBMSWpAqe-14" target="Gz2b2H13pHDKBMSWpAqe-35" edge="1">
          <mxGeometry relative="1" as="geometry" />
        </mxCell>
        <mxCell id="Gz2b2H13pHDKBMSWpAqe-37" value="Δεν Υπάρχουν" style="edgeLabel;html=1;align=center;verticalAlign=middle;resizable=0;points=[];" parent="Gz2b2H13pHDKBMSWpAqe-36" vertex="1" connectable="0">
          <mxGeometry x="-0.0172" relative="1" as="geometry">
            <mxPoint as="offset" />
          </mxGeometry>
        </mxCell>
        <mxCell id="Gz2b2H13pHDKBMSWpAqe-14" value="Οθόνη Request&amp;nbsp;&lt;div&gt;Αγγελιών&lt;/div&gt;" style="shape=umlBoundary;whiteSpace=wrap;html=1;" parent="1" vertex="1">
          <mxGeometry x="-244" y="-129" width="100" height="80" as="geometry" />
        </mxCell>
        <mxCell id="Gz2b2H13pHDKBMSWpAqe-32" value="" style="edgeStyle=none;rounded=0;orthogonalLoop=1;jettySize=auto;html=1;" parent="1" source="Gz2b2H13pHDKBMSWpAqe-20" target="Gz2b2H13pHDKBMSWpAqe-19" edge="1">
          <mxGeometry relative="1" as="geometry" />
        </mxCell>
        <mxCell id="Gz2b2H13pHDKBMSWpAqe-20" value="Review A Request" style="shape=umlBoundary;whiteSpace=wrap;html=1;" parent="1" vertex="1">
          <mxGeometry x="-247" y="150" width="100" height="80" as="geometry" />
        </mxCell>
        <mxCell id="Gz2b2H13pHDKBMSWpAqe-24" value="" style="edgeStyle=none;rounded=0;orthogonalLoop=1;jettySize=auto;html=1;" parent="1" source="Gz2b2H13pHDKBMSWpAqe-9" target="Gz2b2H13pHDKBMSWpAqe-18" edge="1">
          <mxGeometry relative="1" as="geometry">
            <mxPoint x="-83" y="-214" as="sourcePoint" />
            <mxPoint x="-158" y="-129" as="targetPoint" />
          </mxGeometry>
        </mxCell>
        <mxCell id="Gz2b2H13pHDKBMSWpAqe-31" value="" style="edgeStyle=none;rounded=0;orthogonalLoop=1;jettySize=auto;html=1;" parent="1" source="Gz2b2H13pHDKBMSWpAqe-18" target="Gz2b2H13pHDKBMSWpAqe-20" edge="1">
          <mxGeometry relative="1" as="geometry" />
        </mxCell>
        <mxCell id="Gz2b2H13pHDKBMSWpAqe-18" value="Εμφανίζει&amp;nbsp;&lt;div&gt;Requests&lt;span style=&quot;background-color: transparent; color: light-dark(rgb(0, 0, 0), rgb(255, 255, 255));&quot;&gt;&amp;nbsp;&lt;/span&gt;&lt;/div&gt;&lt;div&gt;&lt;div&gt;Αγγελιών&lt;/div&gt;&lt;/div&gt;" style="ellipse;shape=umlControl;whiteSpace=wrap;html=1;" parent="1" vertex="1">
          <mxGeometry x="53" y="-129" width="70" height="80" as="geometry" />
        </mxCell>
        <mxCell id="Gz2b2H13pHDKBMSWpAqe-40" value="" style="edgeStyle=none;rounded=0;orthogonalLoop=1;jettySize=auto;html=1;" parent="1" source="Gz2b2H13pHDKBMSWpAqe-19" target="Gz2b2H13pHDKBMSWpAqe-39" edge="1">
          <mxGeometry relative="1" as="geometry" />
        </mxCell>
        <mxCell id="Gz2b2H13pHDKBMSWpAqe-41" value="Εγκρινει" style="edgeLabel;html=1;align=center;verticalAlign=middle;resizable=0;points=[];" parent="Gz2b2H13pHDKBMSWpAqe-40" vertex="1" connectable="0">
          <mxGeometry x="-0.0703" y="-2" relative="1" as="geometry">
            <mxPoint as="offset" />
          </mxGeometry>
        </mxCell>
        <mxCell id="Gz2b2H13pHDKBMSWpAqe-47" value="" style="edgeStyle=none;rounded=0;orthogonalLoop=1;jettySize=auto;html=1;" parent="1" source="Gz2b2H13pHDKBMSWpAqe-19" target="Gz2b2H13pHDKBMSWpAqe-43" edge="1">
          <mxGeometry relative="1" as="geometry" />
        </mxCell>
        <mxCell id="Gz2b2H13pHDKBMSWpAqe-48" value="Δεν Εγκρίνει" style="edgeLabel;html=1;align=center;verticalAlign=middle;resizable=0;points=[];" parent="Gz2b2H13pHDKBMSWpAqe-47" vertex="1" connectable="0">
          <mxGeometry x="0.0133" y="4" relative="1" as="geometry">
            <mxPoint as="offset" />
          </mxGeometry>
        </mxCell>
        <mxCell id="Gz2b2H13pHDKBMSWpAqe-19" value="επεξεργασία&amp;nbsp;&lt;div&gt;επιλογής&lt;/div&gt;" style="ellipse;shape=umlControl;whiteSpace=wrap;html=1;" parent="1" vertex="1">
          <mxGeometry x="53" y="152" width="70" height="80" as="geometry" />
        </mxCell>
        <mxCell id="Gz2b2H13pHDKBMSWpAqe-34" value="Οθόνη&lt;div&gt;No Request&lt;/div&gt;" style="shape=umlBoundary;whiteSpace=wrap;html=1;" parent="1" vertex="1">
          <mxGeometry x="-244" y="-44" width="100" height="80" as="geometry" />
        </mxCell>
        <mxCell id="Gz2b2H13pHDKBMSWpAqe-38" value="" style="edgeStyle=none;rounded=0;orthogonalLoop=1;jettySize=auto;html=1;" parent="1" source="Gz2b2H13pHDKBMSWpAqe-35" target="Gz2b2H13pHDKBMSWpAqe-34" edge="1">
          <mxGeometry relative="1" as="geometry" />
        </mxCell>
        <mxCell id="Gz2b2H13pHDKBMSWpAqe-35" value="Control Object" style="ellipse;shape=umlControl;whiteSpace=wrap;html=1;" parent="1" vertex="1">
          <mxGeometry x="33" y="-44" width="70" height="80" as="geometry" />
        </mxCell>
        <mxCell id="Gz2b2H13pHDKBMSWpAqe-42" value="" style="edgeStyle=none;rounded=0;orthogonalLoop=1;jettySize=auto;html=1;" parent="1" source="Gz2b2H13pHDKBMSWpAqe-39" target="dpwUTuutwJOYTm1G-602-13" edge="1">
          <mxGeometry relative="1" as="geometry" />
        </mxCell>
        <mxCell id="Gz2b2H13pHDKBMSWpAqe-44" value="" style="edgeStyle=none;rounded=0;orthogonalLoop=1;jettySize=auto;html=1;" parent="1" source="Gz2b2H13pHDKBMSWpAqe-39" target="Gz2b2H13pHDKBMSWpAqe-43" edge="1">
          <mxGeometry relative="1" as="geometry" />
        </mxCell>
        <mxCell id="Gz2b2H13pHDKBMSWpAqe-39" value="Δημοσίευση&lt;div&gt;Διαφήμισης&lt;/div&gt;" style="ellipse;shape=umlControl;whiteSpace=wrap;html=1;" parent="1" vertex="1">
          <mxGeometry x="234" y="152" width="70" height="80" as="geometry" />
        </mxCell>
        <mxCell id="Gz2b2H13pHDKBMSWpAqe-45" value="" style="edgeStyle=none;rounded=0;orthogonalLoop=1;jettySize=auto;html=1;" parent="1" source="Gz2b2H13pHDKBMSWpAqe-43" target="dpwUTuutwJOYTm1G-602-13" edge="1">
          <mxGeometry relative="1" as="geometry" />
        </mxCell>
        <mxCell id="Gz2b2H13pHDKBMSWpAqe-43" value="Ενημέρωση&lt;div&gt;Χρήστη&lt;/div&gt;" style="ellipse;shape=umlControl;whiteSpace=wrap;html=1;" parent="1" vertex="1">
          <mxGeometry x="140" y="53" width="70" height="80" as="geometry" />
        </mxCell>
        <mxCell id="Blse2WxE-sV7xmJfwO1Q-3" value="εμφάνησε" style="ellipse;shape=umlControl;whiteSpace=wrap;html=1;" vertex="1" parent="1">
          <mxGeometry x="-111" y="-250" width="70" height="80" as="geometry" />
        </mxCell>
        <mxCell id="Blse2WxE-sV7xmJfwO1Q-5" value="" style="endArrow=classic;html=1;rounded=0;" edge="1" parent="1" source="Blse2WxE-sV7xmJfwO1Q-3" target="Gz2b2H13pHDKBMSWpAqe-14">
          <mxGeometry width="50" height="50" relative="1" as="geometry">
            <mxPoint x="9" y="27" as="sourcePoint" />
            <mxPoint x="59" y="-23" as="targetPoint" />
          </mxGeometry>
        </mxCell>
      </root>
    </mxGraphModel>
  </diagram>
</mxfile>
